<?xml version="1.0" encoding="utf-8"?><!DOCTYPE svg PUBLIC "-//W3C//DTD SVG 1.1//EN" "http://www.w3.org/Graphics/SVG/1.1/DTD/svg11.dtd"><svg version="1.1" xmlns="http://www.w3.org/2000/svg" xmlns:xlink="http://www.w3.org/1999/xlink" width="32" height="32" viewBox="0 0 32 32" data-tags="visa"><g fill="#444" transform="scale(0.03125 0.03125)"><path fill="rgb(20, 39, 135)" d="M744.32 367.915c-16.512-6.229-42.24-12.843-74.24-12.843-81.92 0-139.733 41.301-140.16 100.48-0.512 43.52 41.131 68.011 72.576 82.603 32.299 14.933 43.093 24.32 43.008 37.76-0.213 20.352-25.813 29.568-49.579 29.568-32.683 0-50.603-4.565-78.123-16l-10.197-4.736-11.563 68.181c19.883 8.32 55.723 15.445 92.8 16 87.083 0 144-41.003 144.683-104.064 0.683-34.688-21.76-61.013-69.163-82.688-28.757-14.080-46.677-23.509-46.677-37.803 0-12.629 15.317-26.112 47.317-26.112 27.52-0.427 46.763 5.504 62.080 11.648l7.68 3.456 11.563-65.877zM956.928 360.661h-64c-19.925 0-34.816 5.419-43.563 25.216l-123.093 278.784h87.083l17.408-45.653 106.24 0.085c2.603 10.667 10.24 45.568 10.24 45.568h76.757zM412.16 358.101h82.901l-51.84 304.171h-82.944l51.883-304.256zM201.429 525.739l8.619 42.24 81.109-207.317h87.851l-130.603 303.573h-87.637l-71.68-257.109c-1.493-4.395-3.328-7.381-7.68-10.112-24.235-12.672-51.328-22.997-81.408-30.165l1.067-6.4h133.589c18.091 0.683 32.683 6.4 37.675 25.771l29.099 139.648zM854.571 556.757l33.067-85.077c-0.427 0.853 6.827-17.579 11.008-29.013l5.675 26.24 19.157 87.765h-68.907z" /></g></svg>