<svg width="427" height="273" viewBox="0 0 427 273" fill="none" xmlns="http://www.w3.org/2000/svg">
<g opacity="0.2">
<path d="M95.7564 17.9113C78.8049 28.1436 59.9161 77.6989 59.9161 77.6989C59.9161 77.6989 48.3044 74.8597 44.1222 69.7397C39.943 64.6274 50.6256 50.788 24.9258 50.788C-0.771093 50.788 -2.0108 68.9833 24.9258 79.9758C51.8653 90.9644 51.8653 96.2705 51.8653 96.2705C22.1416 96.2705 10.8376 116.456 5.18714 150.57C-0.401819 184.296 -5.72704 234.235 13.4694 257.737C7.5874 224.383 19.3544 205.051 48.1491 222.106C15.1722 188.186 9.5979 142.323 27.7129 136.261C45.8279 130.194 109.34 181.363 109.34 181.363C89.0185 152.746 53.2574 121.572 53.2574 113.989C53.2574 106.414 78.8048 37.9027 101.096 25.7776C123.39 13.6447 213.497 11.3717 213.497 11.3717V0.00296402C158.691 0.00296402 112.708 7.67522 95.7564 17.9113Z" fill="url(#paint0_linear_10_3300)"/>
<path d="M213.504 11.3687C213.504 11.3687 303.607 13.6418 325.904 25.7746C348.196 37.8997 373.743 106.411 373.743 113.986C373.743 121.569 337.979 152.743 317.66 181.36C317.66 181.36 381.173 130.191 399.288 136.258C417.4 142.32 411.828 188.183 378.851 222.103C407.646 205.048 419.416 224.38 413.531 257.734C432.73 234.232 427.399 184.293 421.813 150.567C416.163 116.453 404.862 96.2676 375.135 96.2676C375.135 96.2676 375.135 90.9615 402.075 79.9729C429.011 68.9804 427.778 50.785 402.075 50.785C376.372 50.785 387.055 64.6245 382.875 69.7367C378.696 74.8567 367.087 77.696 367.087 77.696C367.087 77.696 348.196 28.1406 331.241 17.9084C314.29 7.67228 268.309 2.67029e-05 213.504 2.67029e-05V11.3687Z" fill="url(#paint1_linear_10_3300)"/>
<path d="M355.591 63.8003C355.503 63.5404 355.397 63.2766 355.277 63.009L355.591 63.8003ZM71.4127 63.8003L71.7263 63.009C71.6061 63.2766 71.5006 63.5365 71.4127 63.8003ZM64.543 81.1385C71.0434 89.0938 158.697 92.4878 213.502 92.4878C268.307 92.4878 355.96 89.0938 362.46 81.1385L355.591 63.8003C364.292 89.5787 213.502 88.6943 213.502 88.6943C213.502 88.6943 62.7142 89.5787 71.4127 63.8003L64.543 81.1385Z" fill="url(#paint2_linear_10_3300)"/>
<path d="M213.493 191.175C213.493 191.175 147.539 192.164 125.014 183.922C140.573 193.871 172.155 200.128 213.493 200.128C254.829 200.128 286.413 193.871 301.973 183.922C279.447 192.164 213.493 191.175 213.493 191.175Z" fill="url(#paint3_linear_10_3300)"/>
<path d="M278.836 259.63C250.704 262.14 220.273 262.275 217.094 262.279C213.216 262.275 176.3 262.14 148.165 259.63C118.441 256.973 109.772 240.298 120.918 216.04C96.7684 233.475 73.8558 232.715 59.6123 223.999C63.2494 234.092 83.7618 253.374 103.114 262.659C121.947 271.697 165.275 272.508 216.803 272.512L217.003 272.515H217.448C268.912 272.512 305.054 271.697 323.888 262.659C343.239 253.374 363.755 234.092 367.392 223.999C353.145 232.715 330.236 233.475 306.083 216.04C317.232 240.298 308.557 256.973 278.836 259.63Z" fill="url(#paint4_linear_10_3300)"/>
<path d="M203.052 175.038C203.052 177.668 207.732 179.801 213.503 179.801C219.273 179.801 223.951 177.668 223.951 175.038C223.951 172.404 219.273 170.271 213.503 170.271C207.732 170.271 203.052 172.404 203.052 175.038Z" fill="url(#paint5_linear_10_3300)"/>
</g>
<defs>
<linearGradient id="paint0_linear_10_3300" x1="112.431" y1="-9.73344" x2="80.4795" y2="261.868" gradientUnits="userSpaceOnUse">
<stop stop-color="#F5F5F5"/>
<stop offset="0.30728" stop-color="#F5F5F5"/>
<stop offset="0.461382" stop-color="#9A9A9A"/>
<stop offset="0.695122" stop-color="#D0D0D0"/>
<stop offset="1" stop-color="#EEEEEE"/>
</linearGradient>
<linearGradient id="paint1_linear_10_3300" x1="326.285" y1="15.421" x2="294.333" y2="287.022" gradientUnits="userSpaceOnUse">
<stop stop-color="#F5F5F5"/>
<stop offset="0.30728" stop-color="#F5F5F5"/>
<stop offset="0.461382" stop-color="#9A9A9A"/>
<stop offset="0.695122" stop-color="#D0D0D0"/>
<stop offset="1" stop-color="#EEEEEE"/>
</linearGradient>
<linearGradient id="paint2_linear_10_3300" x1="218.764" y1="2.7781" x2="186.813" y2="274.38" gradientUnits="userSpaceOnUse">
<stop stop-color="#F5F5F5"/>
<stop offset="0.30728" stop-color="#F5F5F5"/>
<stop offset="0.461382" stop-color="#9A9A9A"/>
<stop offset="0.695122" stop-color="#D0D0D0"/>
<stop offset="1" stop-color="#EEEEEE"/>
</linearGradient>
<linearGradient id="paint3_linear_10_3300" x1="225.605" y1="3.58306" x2="193.654" y2="275.185" gradientUnits="userSpaceOnUse">
<stop stop-color="#F5F5F5"/>
<stop offset="0.30728" stop-color="#F5F5F5"/>
<stop offset="0.461382" stop-color="#9A9A9A"/>
<stop offset="0.695122" stop-color="#D0D0D0"/>
<stop offset="1" stop-color="#EEEEEE"/>
</linearGradient>
<linearGradient id="paint4_linear_10_3300" x1="228.284" y1="3.89175" x2="196.332" y2="275.493" gradientUnits="userSpaceOnUse">
<stop stop-color="#F5F5F5"/>
<stop offset="0.30728" stop-color="#F5F5F5"/>
<stop offset="0.461382" stop-color="#9A9A9A"/>
<stop offset="0.695122" stop-color="#D0D0D0"/>
<stop offset="1" stop-color="#EEEEEE"/>
</linearGradient>
<linearGradient id="paint5_linear_10_3300" x1="225.023" y1="3.51202" x2="193.071" y2="275.113" gradientUnits="userSpaceOnUse">
<stop stop-color="#F5F5F5"/>
<stop offset="0.30728" stop-color="#F5F5F5"/>
<stop offset="0.461382" stop-color="#9A9A9A"/>
<stop offset="0.695122" stop-color="#D0D0D0"/>
<stop offset="1" stop-color="#EEEEEE"/>
</linearGradient>
</defs>
</svg>
